<?xml version="1.0" encoding="UTF-8" standalone="no"?>

<svg version="1.1"
  xmlns="http://www.w3.org/2000/svg"
  xmlns:xlink="http://www.w3.org/1999/xlink"
  width="256px" height="256px"
  viewBox="0 0 256 256" preserveAspectRatio="xMinYMid">
  <g transform="translate(-39.233929,-194.33547)">
    <g fill="#e4e4ea">
      <path
        d="m 62.288778,200.48148 v 32.64572 c 70.087882,0 131.692632,37.0123 166.310872,92.51963 l 22.16297,-25.71689 c -41.22171,-60.01122 -110.32,-99.44846 -188.473842,-99.44846 z m 207.720132,133.32437 -2.65293,7.71624 h 6.02974 c -1.07979,-2.59653 -2.20493,-5.16885 -3.37681,-7.71624 z m 12.92968,35.72606 -27.03759,29.71364 c 1.48451,9.70258 2.25634,19.63668 2.25634,29.74828 h 32.6438 c 0,-20.56361 -2.74657,-40.49381 -7.86255,-59.46192 z"
      />
      <path
        d="m 62.288778,265.771 v 32.64764 c 54.225502,0 100.819262,33.20258 120.533312,80.35042 l 23.24686,-26.976 C 178.48365,300.62361 124.38235,265.771 62.288778,265.771 Z M 184.50472,383.01221 c 5.39964,14.30874 8.36502,29.80298 8.36502,45.98162 h 7.51023 l 17.79083,-45.96044 z"
      />
      <path
        d="m 62.288388,331.05793 v 32.64799 c 36.014465,0 65.292622,29.27957 65.292622,65.28874 h 32.64414 c 0,-54.03247 -43.93593,-97.93673 -97.936762,-97.93673 z"
      />
      <path
        d="m 68.821823,398.86999 c -13.026581,0 -23.587894,10.55174 -23.587894,23.58213 0,13.03043 10.561313,23.58407 23.587894,23.58407 13.026101,0 23.587413,-10.55364 23.587413,-23.58407 0,-13.03039 -10.561312,-23.58213 -23.587413,-23.58213 z"
      />
    </g>
    <g fill="#f2f21b">
      <path
        d="m 231.84348,373.17652 -28.0749,72.52724 85.83128,-94.32415 H 254.1086 l 25.11574,-73.03685 -81.575,94.83376 z"
      />
    </g>
  </g>
</svg>