<?xml version="1.0" encoding="UTF-8" standalone="no"?>

<svg version="1.1"
  xmlns="http://www.w3.org/2000/svg"
  xmlns:xlink="http://www.w3.org/1999/xlink"
  width="256px" height="256px"
  viewBox="0 0 256 256" preserveAspectRatio="xMinYMid">
<g fill="#4b4b4b" transform="translate(-128,-128)">
	<path d="M359.244,224.004h-59.988c-6.217,0-11.258-5.043-11.258-11.258v-59.992c0-6.215-5.039-11.254-11.256-11.254
		h-41.486c-6.217,0-11.258,5.039-11.258,11.254v59.992c0,6.215-5.039,11.258-11.256,11.258h-59.988
		c-6.219,0-11.258,5.039-11.258,11.258v41.484c0,6.215,5.039,11.258,11.258,11.258h59.988c6.217,0,11.256,5.039,11.256,11.258
		v59.984c0,6.219,5.041,11.258,11.258,11.258h41.486c6.217,0,11.256-5.039,11.256-11.258v-59.984
		c0-6.219,5.041-11.258,11.258-11.258h59.988c6.217,0,11.258-5.043,11.258-11.258v-41.484
		C370.502,229.043,365.461,224.004,359.244,224.004z"/>
</g>
</svg>
